<svg width="44" height="49" viewBox="0 0 44 49" fill="none" xmlns="http://www.w3.org/2000/svg">
<path d="M39.6338 35.7279C38.7737 35.1004 37.86 34.5547 36.9869 33.9473M42.3517 16.5269C41.2196 17.0416 40.1228 17.6324 38.9892 18.141M22.9741 5.72355C23.1966 4.41465 23.3732 3.10877 23.5174 1.78912M5.6361 12.3706C4.45578 11.3155 3.22915 10.3072 2.02161 9.28369M5.37527 30.6041C4.24203 31.3664 3.10601 32.1177 2.00002 32.92M31.8264 23.9549C31.1129 14.2599 17.0673 10.3241 11.608 18.2732C10.3097 20.164 9.79113 23.3895 9.99148 25.7548C10.2022 28.2407 11.4547 29.8591 12.1759 32.1637C12.5229 33.273 12.9971 35.0648 13.1466 36.5356L25.0699 38.2455C26.4938 33.0292 32.2568 29.8049 31.8264 23.9549ZM24.264 45.5171C24.4995 43.8783 24.8114 42.2505 25.0152 40.6076C25.0958 39.957 25.3183 39.1791 24.8245 38.6453C24.1035 37.8663 22.9051 37.596 21.8974 37.4264C20.0086 37.109 18.0965 36.8512 16.1987 36.583C15.3345 36.4606 14.0664 36.1247 13.2265 36.4451C12.4271 36.7494 12.0811 37.8417 11.8907 38.5856C11.5259 40.0112 10.6426 43.1847 11.7056 44.4812C12.3751 45.2979 13.5545 45.6178 14.5226 45.8813C17.0908 46.5799 23.9791 47.5022 24.264 45.5171Z" stroke="#464747" stroke-width="2.96118" stroke-miterlimit="1.5" stroke-linecap="round" stroke-linejoin="round"/>
</svg>
