<svg width="40" height="32" viewBox="0 0 40 32" fill="none" xmlns="http://www.w3.org/2000/svg">
<g id="ic:round-email">
<path id="Vector" d="M33.3333 5.33334H6.66667C4.83334 5.33334 3.35 6.53334 3.35 8.00001L3.33334 24C3.33334 25.4667 4.83334 26.6667 6.66667 26.6667H33.3333C35.1667 26.6667 36.6667 25.4667 36.6667 24V8.00001C36.6667 6.53334 35.1667 5.33334 33.3333 5.33334ZM32.6667 11L20.8833 16.8933C20.35 17.16 19.65 17.16 19.1167 16.8933L7.33334 11C7.16621 10.925 7.01987 10.8236 6.90315 10.7019C6.78643 10.5803 6.70177 10.441 6.65429 10.2925C6.60682 10.144 6.59751 9.98926 6.62693 9.83775C6.65635 9.68625 6.7239 9.5411 6.82547 9.41108C6.92705 9.28106 7.06054 9.16888 7.21788 9.08134C7.37522 8.99379 7.55312 8.93269 7.74083 8.90174C7.92854 8.87079 8.12214 8.87063 8.30993 8.90127C8.49771 8.93192 8.67578 8.99272 8.83334 9.08001L20 14.6667L31.1667 9.08001C31.3242 8.99272 31.5023 8.93192 31.6901 8.90127C31.8779 8.87063 32.0715 8.87079 32.2592 8.90174C32.4469 8.93269 32.6248 8.99379 32.7821 9.08134C32.9395 9.16888 33.073 9.28106 33.1745 9.41108C33.2761 9.5411 33.3437 9.68625 33.3731 9.83775C33.4025 9.98926 33.3932 10.144 33.3457 10.2925C33.2982 10.441 33.2136 10.5803 33.0969 10.7019C32.9801 10.8236 32.8338 10.925 32.6667 11Z" fill="#416FE4"/>
</g>
</svg>
