<svg width="36" height="38" viewBox="0 0 36 38" fill="none" xmlns="http://www.w3.org/2000/svg">
<path d="M7.44109 23.1271C6.48441 25.6239 4.65219 28.9475 5.09563 31.6388C5.80395 35.9353 11.2915 33.7431 13.4549 32.3743C14.0288 32.0109 14.5996 31.6402 15.1526 31.2448C15.8107 30.7745 16.4614 30.2915 17.0925 29.785C18.6101 31.9467 20.8154 34.3634 23.2401 35.47C25.2718 36.397 27.0886 35.6138 27.6591 33.4032C28.3406 30.7639 27.8278 27.6463 27.3595 25.013C29.5395 23.2438 31.7988 21.4533 33.4913 19.2064C35.118 17.0462 34.2132 14.8238 31.7251 14.0311C30.9214 13.775 30.0899 13.6125 29.2546 13.5026C28.1304 13.355 25.4106 13.2214 24.7193 13.1645C24.6466 13.114 24.5385 12.4247 24.5072 12.3063C24.2937 11.502 24.0657 10.7072 23.8048 9.91691C23.6076 9.32064 23.4057 8.72558 23.1971 8.13344C22.4551 6.02602 20.8837 0.389261 17.6806 2.224C17.3552 2.41063 17.0743 2.65597 16.8153 2.92605C16.3876 3.37236 16.0366 3.9118 15.7118 4.4368C15.1022 5.42255 14.6028 6.4707 14.0977 7.5123C13.3428 9.06786 12.6845 10.6867 11.8645 12.2099C11.8543 12.2287 11.8463 12.2487 11.8393 12.269C10.8089 12.21 9.77614 12.1429 8.74431 12.11C6.4933 12.0381 3.03547 11.1626 1.86924 13.3316C1.23838 14.5043 1.72273 15.8401 2.36474 16.8862C3.66928 19.0108 5.5281 20.7204 7.32756 22.4093" stroke="#464747" stroke-width="3" stroke-miterlimit="1.5" stroke-linecap="round" stroke-linejoin="round"/>
</svg>
